<?xml version="1.0" standalone="no"?>
<!DOCTYPE svg PUBLIC "-//W3C//DTD SVG 20010904//EN"
 "http://www.w3.org/TR/2001/REC-SVG-20010904/DTD/svg10.dtd">
<svg version="1.0" xmlns="http://www.w3.org/2000/svg"
 width="1024.000000pt" height="1024.000000pt" viewBox="0 0 1024.000000 1024.000000"
 preserveAspectRatio="xMidYMid meet">

<g transform="translate(0.000000,1024.000000) scale(0.100000,-0.100000)"
fill="#000000" stroke="none">
<path d="M4042 8193 c-10 -4 -9 -9 5 -20 17 -14 16 -14 -7 -9 -15 3 -32 -1
-44 -12 -11 -10 -16 -11 -11 -3 5 9 3 12 -6 9 -8 -3 -13 -11 -11 -17 1 -7 -2
-10 -8 -6 -13 8 -72 -34 -65 -46 4 -5 0 -7 -7 -4 -16 6 -94 -48 -91 -63 2 -6
-3 -9 -11 -6 -15 6 -127 -94 -226 -202 -76 -84 -167 -213 -227 -324 -82 -152
-173 -447 -203 -660 -44 -312 -16 -1073 65 -1745 13 -110 26 -238 30 -285 4
-47 24 -260 45 -475 21 -214 44 -446 50 -515 42 -453 160 -976 296 -1308 146
-356 361 -656 590 -823 176 -129 432 -206 554 -166 26 9 36 15 24 16 -22 1
-155 67 -164 81 -5 7 -37 31 -155 112 -98 67 -181 159 -285 313 -52 78 -180
333 -180 359 0 7 -6 29 -14 48 -14 32 -47 148 -66 228 -38 157 -50 219 -55
273 -3 34 -10 94 -16 133 -16 104 -6 403 20 609 13 100 12 95 42 220 17 76
106 288 128 305 3 3 12 17 20 32 8 16 16 26 18 24 2 -2 23 15 46 39 23 23 54
50 70 60 15 10 30 28 33 41 5 19 15 24 61 30 71 9 139 0 162 -20 14 -12 20
-13 31 -3 10 10 12 9 7 -4 -4 -14 2 -16 37 -13 23 1 49 -2 57 -7 10 -7 5 -8
-16 -4 -22 4 -25 3 -10 -3 19 -9 19 -9 0 -20 -32 -19 -12 -14 28 7 21 11 33
21 27 23 -5 1 11 4 38 4 26 1 106 13 177 27 150 30 341 58 575 87 227 28 490
75 645 114 141 37 371 118 401 142 18 14 18 14 -4 4 -25 -12 -46 -5 -36 12 4
7 2 8 -5 4 -6 -4 -9 -11 -6 -16 6 -9 -10 -22 -49 -39 -26 -11 -28 -10 -16 3 8
11 9 16 1 16 -6 0 -11 9 -11 20 0 11 -7 20 -15 20 -16 0 -36 39 -28 53 5 9
-43 57 -58 57 -12 0 -16 1 -68 17 -24 7 -71 13 -104 13 -38 0 -69 6 -88 17
-22 13 -32 15 -37 6 -5 -8 -101 -15 -322 -23 -172 -6 -318 -14 -323 -17 -5 -3
-63 -7 -130 -9 -172 -5 -240 -12 -335 -34 -83 -20 -185 -19 -198 1 -3 5 -16 9
-30 9 -17 0 -24 6 -24 19 0 10 -7 21 -15 25 -8 3 -14 11 -13 18 2 7 -7 14 -19
16 -27 4 -28 8 -9 28 8 8 13 26 12 42 -3 25 8 41 28 42 4 0 5 -8 1 -17 -5 -14
-3 -15 5 -6 8 7 9 17 3 27 -8 15 -12 14 -34 -6 -28 -26 -77 -54 -83 -47 -2 2
-13 63 -25 134 -34 216 -44 395 -37 685 9 329 9 334 19 341 4 3 9 35 10 71 1
38 6 61 10 54 5 -6 6 9 3 33 -2 25 -1 39 3 32 13 -20 32 95 21 125 -13 32 -12
37 0 29 6 -3 10 1 10 9 0 8 4 18 10 21 7 4 7 -3 0 -20 -6 -15 -10 -32 -9 -38
0 -7 11 19 25 58 13 38 22 76 19 83 -3 7 -1 11 4 8 12 -8 35 50 25 65 -4 7 -3
10 3 6 5 -3 19 13 30 36 26 53 127 164 202 222 76 58 197 118 307 151 84 26
100 28 294 28 184 1 213 -1 283 -22 226 -65 397 -195 495 -377 56 -104 69
-145 83 -257 28 -225 -28 -441 -156 -608 -50 -64 -159 -169 -216 -207 -38 -25
-49 -46 -29 -58 6 -4 7 -12 3 -18 -4 -8 -1 -7 9 1 14 11 19 10 33 -12 9 -14
27 -28 38 -31 81 -21 97 -29 97 -47 0 -14 8 -18 33 -18 18 0 38 -5 44 -11 10
-10 27 -8 153 14 16 3 171 79 205 100 100 63 150 102 224 176 100 99 137 151
197 271 112 229 136 512 68 815 -23 100 -89 265 -137 338 -54 84 -240 287
-317 347 -87 68 -194 140 -255 172 -144 75 -274 138 -285 138 -7 0 -26 6 -43
14 -134 58 -409 120 -624 139 -100 9 -188 9 -398 -1 -310 -15 -435 -15 -452 0
-9 7 -13 7 -13 -1 0 -19 -21 -12 -42 14 -11 14 -26 25 -33 25 -8 0 -23 14 -35
30 -12 17 -30 30 -41 30 -11 0 -33 7 -50 15 -16 9 -34 13 -39 10 -16 -10 -50
5 -50 22 0 10 -6 14 -18 11 -21 -6 -48 18 -29 25 7 3 8 5 2 5 -5 0 -16 -2 -23
-5z m-93 -76 c-2 -1 -13 -9 -24 -17 -19 -14 -19 -14 -6 3 7 9 18 17 24 17 6 0
8 -1 6 -3z m750 -121 c-12 -10 -59 -15 -59 -6 0 5 14 10 32 10 17 0 29 -2 27
-4z m-529 -477 c3 -1 8 -1 12 -1 3 1 12 -5 18 -13 7 -8 19 -15 26 -15 8 0 14
-10 14 -25 0 -14 5 -25 10 -25 6 0 10 -14 10 -31 0 -17 -4 -28 -10 -24 -5 3
-10 2 -10 -4 0 -5 4 -12 9 -15 4 -3 11 -43 14 -88 3 -46 10 -96 15 -113 19
-56 42 -163 42 -194 0 -16 5 -33 10 -36 13 -8 13 -45 0 -45 -7 0 -7 -7 1 -21
6 -12 13 -69 15 -127 3 -69 9 -109 17 -114 9 -6 9 -10 -2 -17 -8 -5 -11 -16
-8 -25 4 -10 1 -19 -7 -22 -18 -7 -14 -153 5 -165 11 -7 10 -9 -3 -9 -10 0
-18 -4 -18 -10 0 -5 8 -10 18 -10 14 0 14 -2 3 -9 -13 -8 -16 -58 -8 -121 4
-32 -15 -100 -26 -93 -7 4 -8 0 -4 -12 4 -9 3 -23 -3 -30 -8 -9 -8 -15 0 -20
6 -3 7 -12 3 -18 -4 -7 -8 -37 -10 -67 -3 -81 -18 -171 -29 -178 -5 -4 -10
-23 -11 -42 -3 -109 -12 -247 -17 -260 -2 -8 -8 -42 -11 -75 -11 -100 -22
-145 -37 -145 -5 0 -15 -15 -23 -32 -8 -18 -14 -29 -15 -25 0 5 -5 5 -11 1 -8
-5 -8 -9 1 -14 10 -6 7 -14 -9 -31 -11 -12 -23 -30 -26 -40 -3 -9 -13 -20 -21
-23 -8 -3 -12 -10 -9 -16 3 -5 -1 -10 -9 -10 -9 0 -16 -7 -16 -15 0 -9 -9 -15
-21 -15 -15 0 -19 -5 -15 -15 3 -9 0 -15 -9 -15 -8 0 -15 -8 -15 -19 0 -10
-15 -32 -32 -49 -76 -73 -125 -121 -154 -153 -54 -58 -89 -89 -100 -89 -6 0
-19 -9 -29 -20 -20 -22 -45 -26 -61 -10 -6 6 -24 12 -41 13 -27 2 -35 9 -57
54 -14 29 -30 81 -36 115 -10 67 -13 94 -29 313 -6 77 -13 158 -16 180 -8 71
-20 575 -18 750 4 214 18 472 32 550 6 33 22 103 36 155 15 52 32 115 39 140
7 25 26 74 43 111 17 36 34 75 37 87 4 12 12 22 17 22 5 0 17 16 26 35 9 19
20 35 24 35 4 0 10 11 13 24 3 14 15 28 26 31 11 3 20 11 20 16 0 18 90 100
102 93 6 -4 8 -3 5 3 -4 5 29 26 73 46 52 23 80 31 83 24 3 -9 7 -9 18 0 8 6
25 13 39 15 24 3 99 1 110 -3z m388 -743 c-15 -30 -16 -30 -14 -3 0 13 6 24
13 24 9 0 9 -6 1 -21z m-77 -173 c-12 -20 -14 -14 -5 12 4 9 9 14 11 11 3 -2
0 -13 -6 -23z m-41 -147 c0 -6 -5 -3 -11 7 -6 9 -15 14 -21 11 -7 -4 -8 -2 -4
5 9 14 36 -3 36 -23z m-95 -326 c-4 -12 -9 -19 -12 -17 -3 3 -2 15 2 27 4 12
9 19 12 17 3 -3 2 -15 -2 -27z m27 0 c-2 -16 -6 -30 -8 -30 -2 0 -4 14 -4 30
0 17 4 30 8 30 5 0 7 -13 4 -30z m-35 -72 c-3 -8 -6 -5 -6 6 -1 11 2 17 5 13
3 -3 4 -12 1 -19z m140 -1062 c0 -8 -6 -12 -15 -9 -11 5 -11 7 0 14 7 5 13 9
14 9 0 0 1 -6 1 -14z m1805 -287 c-4 -4 -18 -9 -32 -13 -14 -3 -19 -3 -12 0 6
3 10 9 8 12 -2 4 7 7 19 7 13 0 21 -3 17 -6z m-1525 -275 c-3 -3 -12 -4 -19
-1 -8 3 -5 6 6 6 11 1 17 -2 13 -5z"/>
<path d="M4157 8159 c7 -7 15 -10 18 -7 3 3 -2 9 -12 12 -14 6 -15 5 -6 -5z"/>
<path d="M5789 5643 c-1 -5 -1 -12 0 -17 1 -5 -5 -6 -14 -2 -9 3 -13 2 -10 -4
3 -6 1 -10 -6 -10 -7 0 -10 -3 -6 -6 9 -9 40 12 43 30 1 9 0 16 -2 16 -2 0 -5
-3 -5 -7z"/>
<path d="M4569 5103 c-13 -16 -12 -17 4 -4 9 7 17 15 17 17 0 8 -8 3 -21 -13z"/>
<path d="M6348 4768 c5 -5 16 -8 23 -6 8 3 3 7 -10 11 -17 4 -21 3 -13 -5z"/>
<path d="M4498 4373 c7 -3 16 -2 19 1 4 3 -2 6 -13 5 -11 0 -14 -3 -6 -6z"/>
<path d="M4575 4341 c-104 -49 -221 -124 -281 -182 -72 -67 -126 -136 -114
-144 24 -15 45 -113 42 -192 -1 -24 1 -43 5 -43 5 0 8 -12 9 -27 0 -16 4 -161
8 -323 7 -269 11 -410 20 -590 10 -187 38 -490 56 -600 11 -69 24 -148 28
-175 14 -87 52 -140 131 -181 25 -13 67 -2 57 15 -3 4 0 27 6 52 13 58 12 391
-2 488 -6 42 -15 105 -20 141 -34 241 -60 1020 -38 1155 30 189 44 240 78 276
27 30 29 31 24 8 -5 -19 -3 -21 5 -9 8 11 11 -9 13 -80 1 -75 3 -81 5 -30 4
83 31 348 42 420 5 30 8 56 7 57 -1 1 -37 -15 -81 -36z"/>
<path d="M27 103 c-25 -4 -27 -8 -27 -54 0 -48 1 -49 30 -49 30 0 30 1 30 55
0 30 -1 54 -2 54 -2 -1 -15 -4 -31 -6z"/>
</g>
</svg>
